<svg width="20" height="19" viewBox="0 0 20 19" fill="none" xmlns="http://www.w3.org/2000/svg">
<path d="M9.56754 0.28749C9.72753 -0.0958305 10.2725 -0.0958298 10.4325 0.287491L12.8634 6.11167C12.9309 6.27326 13.0834 6.38368 13.2585 6.39766L19.5684 6.90174C19.9837 6.93492 20.1521 7.45136 19.8357 7.72144L15.0282 11.8251C14.8948 11.9389 14.8365 12.1176 14.8773 12.2878L16.3461 18.4235C16.4427 18.8274 16.0019 19.1465 15.6463 18.9301L10.2441 15.6421C10.0943 15.5509 9.90574 15.5509 9.75586 15.6421L4.35369 18.9301C3.99814 19.1465 3.55728 18.8274 3.65395 18.4235L5.12271 12.2878C5.16347 12.1176 5.10521 11.9389 4.97182 11.8251L0.164335 7.72144C-0.152072 7.45136 0.0163223 6.93492 0.431612 6.90174L6.74153 6.39766C6.9166 6.38368 7.06911 6.27326 7.13656 6.11167L9.56754 0.28749Z" fill="#FFBC1F"/>
</svg>
