<svg width="18" height="18" viewBox="0 0 18 18" fill="none" xmlns="http://www.w3.org/2000/svg">
<path fill-rule="evenodd" clip-rule="evenodd" d="M4 8.92554C4 5.99967 6 3.92554 9 3.92554C12.0017 3.92554 14 5.90735 14 9C14 12.0003 12.0017 13.9255 9.00201 13.9255C6.00234 13.9255 4 12.0003 4 8.92554ZM6.00234 9C6.00234 10.6548 7.35159 12.0003 9.00201 12.0003C10.6524 12.0003 12.0017 10.6548 12.0017 9C12.0017 7.3452 10.6564 5.99967 9.00201 5.99967C7.34757 5.99967 6.00234 7.3452 6.00234 9ZM14.8047 5.27268C15.399 5.27268 15.8809 4.79471 15.8809 4.19625C15.8809 3.60181 15.399 3.11983 14.8047 3.11983C14.2104 3.11983 13.7285 3.60181 13.7285 4.19625C13.7285 4.7907 14.2064 5.27268 14.8047 5.27268ZM16.4831 1.51724C17.5392 2.56956 17.8685 3.84681 17.9368 5.28874C18.0211 6.77485 18.0211 11.2251 17.9368 12.7113C17.8645 14.1532 17.5352 15.4304 16.4831 16.4828C15.431 17.5391 14.154 17.8685 12.7124 17.9367C11.2267 18.0211 6.77334 18.0211 5.28756 17.9367C3.84596 17.8644 2.57301 17.5351 1.5169 16.4828C0.460792 15.4304 0.131511 14.1532 0.063246 12.7113C-0.021082 11.2251 -0.021082 6.77083 0.063246 5.28473C0.135527 3.8428 0.460792 2.56555 1.5169 1.51322C2.57301 0.460895 3.84997 0.131541 5.28756 0.0632601C6.77334 -0.0210867 11.2267 -0.0210867 12.7124 0.0632601C14.154 0.135557 15.431 0.464911 16.4831 1.51724Z" fill="#363636"/>
</svg>
