<svg width="18" height="19" viewBox="0 0 18 19" fill="none" xmlns="http://www.w3.org/2000/svg">
<path d="M4.02901 19H0.297255V6.31495H4.02901V19ZM2.16112 4.5846C0.968087 4.5846 0 3.54129 0 2.2817C0 1.0221 0.968087 0 2.16112 0C3.35416 0 4.32225 1.0221 4.32225 2.2817C4.32225 3.54129 3.35416 4.5846 2.16112 4.5846ZM17.996 19H14.2723V12.825C14.2723 11.3533 14.2441 9.46607 12.3321 9.46607C10.3919 9.46607 10.0946 11.065 10.0946 12.719V19H6.36688V6.31495H9.94599V8.04531H9.99821C10.4963 7.04866 11.7135 5.99687 13.5291 5.99687C17.3051 5.99687 18 8.6221 18 12.0319V19H17.996Z" fill="#363636"/>
</svg>
