<svg width="13" height="11" viewBox="0 0 13 11" fill="none" xmlns="http://www.w3.org/2000/svg">
<path fill-rule="evenodd" clip-rule="evenodd" d="M9.14645 0.646447C9.19438 0.598509 9.24963 0.562341 9.3086 0.537941L9.85353 0.64642L9.85401 0.646909L12.3535 3.14598C12.5487 3.34123 12.5488 3.65781 12.3535 3.85309C12.1583 4.04837 11.8417 4.04839 11.6464 3.85314L10 2.20698V7C10 7.27614 9.77614 7.5 9.5 7.5C9.22386 7.5 9 7.27614 9 7V2.20711L7.35355 3.85355C7.15829 4.04882 6.84171 4.04882 6.64645 3.85355C6.45118 3.65829 6.45118 3.34171 6.64645 3.14645L9.14645 0.646447ZM9.3086 0.537941L9.85141 0.644319C9.7611 0.555088 9.63699 0.5 9.5 0.5C9.4322 0.5 9.36756 0.513493 9.3086 0.537941ZM1 5.5C0.723858 5.5 0.5 5.72386 0.5 6C0.5 6.27614 0.723858 6.5 1 6.5H5.49994C5.77608 6.5 5.99994 6.27614 5.99994 6C5.99994 5.72386 5.77608 5.5 5.49994 5.5H1ZM0.5 2C0.5 1.72386 0.723858 1.5 1 1.5H4.49994C4.77608 1.5 4.99994 1.72386 4.99994 2C4.99994 2.27614 4.77608 2.5 4.49994 2.5H1C0.723858 2.5 0.5 2.27614 0.5 2ZM1 9.5C0.723858 9.5 0.5 9.72386 0.5 10C0.5 10.2761 0.723858 10.5 1 10.5H9.49994C9.77608 10.5 9.99994 10.2761 9.99994 10C9.99994 9.72386 9.77608 9.5 9.49994 9.5H1Z" fill="#A7A7A7"/>
</svg>
