<svg width="22" height="14" viewBox="0 0 22 14" fill="none" xmlns="http://www.w3.org/2000/svg">
<path d="M21.4986 0.895125C21.6497 0.3795 21.4986 0 20.7716 0H18.3661C17.7535 0 17.4717 0.325875 17.3206 0.688875C17.3206 0.688875 16.0954 3.70425 14.3637 5.6595C13.8042 6.22462 13.5469 6.40612 13.2406 6.40612C13.0895 6.40612 12.8567 6.22462 12.8567 5.709V0.895125C12.8567 0.276375 12.6852 0 12.1787 0H8.39687C8.01297 0 7.78426 0.28875 7.78426 0.556875C7.78426 1.14262 8.65009 1.27875 8.73993 2.92875V6.50925C8.73993 7.293 8.60108 7.43737 8.29477 7.43737C7.47795 7.43737 5.49309 4.40963 4.31687 0.944625C4.08 0.27225 3.84721 0 3.23051 0H0.824984C0.138859 0 1.55795e-08 0.325875 1.55795e-08 0.688875C1.55795e-08 1.33237 0.816816 4.52925 3.80228 8.75325C5.79123 11.6366 8.59291 13.2 11.1414 13.2C12.6729 13.2 12.8608 12.8535 12.8608 12.2554C12.8608 9.49988 12.7219 9.24 13.4897 9.24C13.845 9.24 14.4577 9.4215 15.8871 10.8116C17.5207 12.4616 17.7903 13.2 18.7051 13.2H21.1106C21.7967 13.2 22.1439 12.8535 21.9438 12.1687C21.4864 10.7291 18.3947 7.76737 18.2558 7.56937C17.9005 7.10737 18.0026 6.90112 18.2558 6.48862C18.2599 6.4845 21.1964 2.31 21.4986 0.895125Z" fill="#363636"/>
</svg>
